<svg width="193" height="60" viewBox="0 0 193 60" fill="none" xmlns="http://www.w3.org/2000/svg">
<path d="M0.0415039 41.7811C0.0415039 30.0781 9.52874 20.5908 21.2318 20.5908C32.9349 20.5908 42.4221 30.0781 42.4221 41.7811V50.8232H0.0415039V41.7811Z" fill="white"/>
<circle cx="21.232" cy="15.537" r="14.2363" transform="rotate(90 21.232 15.537)" fill="#FBAF1B" style="mix-blend-mode:multiply"/>
<path d="M61.7139 12.5757C61.7139 7.05283 66.191 2.57568 71.7139 2.57568H85.3846C90.9074 2.57568 95.3846 7.05284 95.3846 12.5757V50.8231H61.7139V12.5757Z" fill="white"/>
<path d="M83.2729 35.1841C83.2729 26.8998 89.9887 20.1841 98.2729 20.1841H101.944C110.228 20.1841 116.944 26.8998 116.944 35.1841V50.8233H83.2729V35.1841Z" fill="#FBAF1B" style="mix-blend-mode:multiply"/>
<path d="M166.71 7.64844C174.052 7.64844 180.002 13.7943 180.002 22.3984C180.002 39.6068 161.877 49.4401 155.835 53.1276C149.793 49.4401 131.668 39.6068 131.668 22.3984C131.668 13.7943 137.71 7.64844 144.96 7.64844C149.455 7.64844 153.418 10.1068 155.835 12.5651C158.252 10.1068 162.215 7.64844 166.71 7.64844Z" fill="white"/>
<path d="M174.627 7.64844C181.968 7.64844 187.918 13.7943 187.918 22.3984C187.918 39.6068 169.793 49.4401 163.752 53.1276C157.71 49.4401 139.585 39.6068 139.585 22.3984C139.585 13.7943 145.627 7.64844 152.877 7.64844C157.372 7.64844 161.335 10.1068 163.752 12.5651C166.168 10.1068 170.132 7.64844 174.627 7.64844Z" fill="#FBAF1B" style="mix-blend-mode:multiply"/>
</svg>
